<?xml version="1.0" encoding="utf-8"?>
<!-- Generator: Adobe Illustrator 27.6.1, SVG Export Plug-In . SVG Version: 6.00 Build 0)  -->
<svg version="1.1" id="Layer_2_00000022521290817484556920000015278921211011934894_"
	 xmlns="http://www.w3.org/2000/svg" xmlns:xlink="http://www.w3.org/1999/xlink" x="0px" y="0px" viewBox="0 0 1050 429"
	 style="enable-background:new 0 0 1050 429;" xml:space="preserve">
<style type="text/css">
	.st0{fill:#231F20;}
</style>
<path class="st0" d="M192.6,111.3c22.2,13.4,21.8,33.5,21.3,54.1c-0.3,13-6.2,18.2-18.6,17.9c-5-0.1-10.1-0.2-15.1,0.1
	c-15,0.9-21.7-5-21.5-20.8c0.2-24.4-3-26.7-27.4-26.8c-16.4,0-32.8,0.6-49.2-0.2c-11.8-0.6-16.8,2.8-17.3,15.5
	c-1.1,31.1-13.6,39.9-44.2,31c-5.2-1.5-11.7-10.1-11.8-15.6c-0.9-46.5-0.5-93-0.6-139.4c0-11.7,5.3-17.2,17.2-17.2
	C68.2,10,111.1,8.9,154,10.4c24.3,0.8,46.5,10.1,56.2,34.7C219.5,68.9,213.6,90.7,192.6,111.3 M65.2,57.1
	c-3.6,32.5-2.5,32.4,25.9,32.4c11.3,0,22.7,0.5,34-0.1c12.2-0.7,29.6,4.7,29.9-15.9c0.3-20.3-16.5-16.6-29.2-16.9
	c-18.8-0.4-37.6-0.1-57.7-0.1"/>
<path class="st0" d="M359.8,1.6c28.5-0.7,38.9,14.8,50.1,38.3c19.7,41.3,42.2,81.2,63.4,121.9c8.8,16.9,6.5,20.6-12.5,21.4
	c-20.4,0.9-35.2,6.9-48.9-23.5c-1.8-4-11-7.9-16.9-8.1c-24.5-0.9-49.2-1.4-73.7,0.2c-7,0.5-16.5,6.4-19.8,13.1
	c-11,21.9-43.5,26-59.1,16.4c-2.7-1.7-4-10.1-2.3-13.6c25.1-49.1,49.5-98.7,77.4-146.2c5.6-9.6,12.9-12.7,25.9-18
	C346.8,2.8,356.5,1.9,359.8,1.6 M361.2,60.4c-2.1-0.2-4.1-0.4-6.2-0.5c-7.3,15-14.6,29.9-23,47.2H385
	C376.1,89.6,368.7,75,361.2,60.4"/>
<path class="st0" d="M501.8,95.8c0-22,0.3-44-0.1-66c-0.3-14.1,4.9-20.6,19.9-20.3c36,0.6,72-0.9,107.9,0.5
	c64.4,2.5,89.5,60.8,78,107.1c-11.6,47-36.1,65.1-85.1,66c-32.2,0.6-64.4-0.5-96.5,0.4c-17.5,0.5-25.5-4.9-24.3-23.7
	C502.9,138.6,501.9,117.2,501.8,95.8L501.8,95.8 M595.8,137.2c9.4,0,19.8-0.3,28.1-2.5c11.3-3,22.7-6.2,26.9-18.6
	c11.3-33.5-3-53.6-37.7-57.7c-5-0.6-10-0.7-15-0.7c-48.6-0.3-40.9-1-40.8,39.8C557.2,141.9,550.7,137.4,595.8,137.2"/>
<path class="st0" d="M733.7,96c0-22,0.3-44-0.1-66c-0.3-14.1,5.1-20.3,20-20.5c33.7-0.6,35.6,0.7,35.6,33.8
	c0,39.6-0.7,79.1,0.3,118.7c0.5,22.6-13.9,21.2-29,21.5c-15.2,0.3-27.9-0.8-27-21.4C734.4,140,733.7,118,733.7,96"/>
<path class="st0" d="M926.9,7.1c21.3,0.5,44.6,2.6,64.2,11.2c35.3,15.3,50.7,44.7,49.1,83.4c-1.6,36.6-18.8,61.5-52.4,75.5
	c-39,16.3-78.7,16.9-118,1.9c-43.7-16.7-62.7-53.8-54.9-103.7c5.2-33.3,42.8-64.2,83.6-68.2C907.9,6.4,917.4,7.1,926.9,7.1
	C927.2,5.7,926.6,8.6,926.9,7.1 M925.9,53.6c-5.7,0-11.5-0.9-16.9,0.2c-17.7,3.4-31.7,11-36,30.7c-4.4,20.1,0.7,40.7,16.2,48
	c24.9,11.6,51.2,11.5,76.3-0.1c5.9-2.8,11-10.4,13.5-17C993.4,77.7,972.2,53.3,925.9,53.6"/>
<g>
	<path class="st0" d="M629.8,418.6c46-0.5,92.1-0.4,138.2,0c15.8,0.1,22.7-5.4,22.5-22.1c-0.2-16.5-7.1-22.4-22.9-22.1
		c-29.6,0.5-59.3,0.7-89-0.2c-5.6-0.2-16.3-1-16.4-9.8c-0.1-8,10.3-10.1,15.6-10.3c29-1,58-0.9,87-0.4c15.9,0.3,21.2-7,20.6-21.9
		c-0.5-13.8-3.6-22.7-20.6-22c-27.7,1.1-55.5,0.4-83.3,0.3c-8.6,0-20.2,1.7-18.5-11.5c0.5-4.1,6.8-9.5,17.8-9.8
		c29.6-0.9,59.3-0.8,89-0.4c14.2,0.2,20.7-4.8,20.5-19.8c-0.1-15-3.7-24.1-21.1-23.6c-23.3,0.7-46.7,0.2-70,0.2
		c-23.3,0-46.7,0.5-70-0.2c-14.6-0.4-20.5,5.5-20.4,20c0.4,44,0.4,88,0,132C608.7,411.9,614.2,418.8,629.8,418.6L629.8,418.6z"/>
	<path class="st0" d="M81.1,298c16.4-13.5,60-16.1,74.7-0.2c15.9,17.2,30.8,13.4,52.3,13.5c12.2,0,16.6-7.9,10.9-17.5
		c-6.9-11.6-16.8-25.6-25.6-31.6c-44.6-30.5-94.4-29-142.1-4.8c-30.2,15.3-44,43-42.9,76.3c1.2,35.5,18.2,61.8,51.5,77
		c42.8,19.6,86.1,16.1,129.2,2.5c33.3-10.5,33-11.6,33-46.8c0-8.8-0.2-17.6,0-26.4c0.2-10.9-4.7-16.4-15.7-16.5
		c-24-0.2-48-0.7-72-0.7c-10.9,0-20.3,2.1-20.2,16.4c0.1,14.2,7.2,20.6,21.1,20.5c12.9-0.1,25.9,0,43.6,0c-0.9,5.5-3.9,9.9-7.3,11.4
		c-27.3,12.4-56.2,14.9-84.2,1.5c-6.3-3-11.9-9.5-15.4-15.7C61,337.1,65.6,310.8,81.1,298L81.1,298z"/>
	<path class="st0" d="M1039.9,269.2c-0.1-23.4-0.9-24.1-24.9-24.2c-27.7,0-29.3,1.1-29.5,23.9c-0.2,28.2-0.1,56.4-0.1,84.5
		c-0.3,3.5-4,4.1-7.3,3.7c-2.4-2.9-5.5-7.2-8.6-11c-16.1-20.2-31.4-41-47.9-60.9c-34.3-41.4-34.3-40.8-86.5-40.6
		c-16.5,0.1-22.5,6.1-22.3,22.1c0.6,39.6,0.1,79.2,0.2,118.8c0,31.9,2.9,34,34.7,32.8c14.9-0.5,19.6-7.1,19.3-21.1
		c-0.5-25.1,0-50.3,0.4-75.4c0.1-4.4-0.1-9.5,1.7-18.6c22.7,27.9,44.9,52.5,63.3,77.5c26.1,35.4,48,42,84.5,38
		c16.5-1.8,23.6-5.8,23.2-23.4C1039.3,353.5,1040,311.4,1039.9,269.2L1039.9,269.2z"/>
	<path class="st0" d="M573.4,245.1c-34-1.4-34.8-0.7-45,31.6c-3.4,10.8-7.2,21.4-11.2,32c-7,18.8-14.2,37.5-23.2,61.4
		c-16.3-40.2-29.6-74.6-44.3-108.5c-2.8-6.5-9.9-14.2-16.2-15.6c-45.4-9.9-60.8-0.9-76.4,42c-0.4,1.2-0.6,2.5-1,3.6
		c-10.2,24.5-20.4,49.1-32.7,78.9c-12.9-35.8-25-65.4-34.2-95.8c-10-33.1-11.6-29.3-46.3-29.6c-14.4-0.1-17.3,5.9-12.4,19.1
		c12.9,34.7,24,70,37.5,104.5c23.3,59.7,6.8,48.3,72.1,49.9c14.4,0.3,22-6.3,26.6-18.9c6.4-17.7,13.2-35.2,20.2-52.6
		c6.4-15.8,13.4-31.4,20.1-47.1c1.7,0.1,3.3,0.3,5,0.4c11.6,29.6,23.5,59,34.7,88.7c11.1,29.2,10.8,29.4,41.9,29.5
		c41.1,0.2,41.5,0.4,56.4-37.5c14.7-37.4,28.4-75.1,42.3-112.8C593.5,250.8,590.3,245.9,573.4,245.1L573.4,245.1z"/>
</g>
</svg>
